<svg xmlns="http://www.w3.org/2000/svg" width="394.096" height="275.389" viewBox="0 0 394.096 275.389"><g transform="translate(0 0)"><ellipse cx="166.435" cy="8.413" rx="166.435" ry="8.413" transform="translate(0 241.005)" fill="#3f3d56"/><ellipse cx="65.127" cy="3.292" rx="65.127" ry="3.292" transform="translate(263.843 260.443)" fill="#3f3d56"/><ellipse cx="65.127" cy="3.292" rx="65.127" ry="3.292" transform="translate(79.747 268.805)" fill="#3f3d56"/><path d="M894.391,506.992l5.844-4.062,12.111-15.589a2.123,2.123,0,0,0-.374-2.979h0a2.123,2.123,0,0,0-2.979.374l-12.111,15.589Z" transform="translate(-589.658 -333.815)" fill="#2f2e41"/><path d="M957.021,138.829s-7.349-6.589-17.232,5.829-25.342,18.5-28.889,23.314c0,0,14.7-6.082,19.766-8.616s4.815-2.027,4.815-2.027-6.842,4.815-8.109,9.63-.253,8.87-2.534,13.684,43.588,3.294,43.588,3.294,4.561-7.856,3.294-15.965S971.212,139.843,957.021,138.829Z" transform="translate(-600.128 -113.85)" fill="#2f2e41"/><path d="M978.179,195.2s1.774,12.417-5.829,15.2S967.536,217,967.536,217l11.4,5.575,12.164-3.8,4.055-6.082s-6.589-1.521-4.815-6.082,2.281-6.082,2.281-6.082Z" transform="translate(-635.731 -150.71)" fill="#ffb9b9"/><path d="M978.179,195.2s1.774,12.417-5.829,15.2S967.536,217,967.536,217l11.4,5.575,12.164-3.8,4.055-6.082s-6.589-1.521-4.815-6.082,2.281-6.082,2.281-6.082Z" transform="translate(-635.731 -150.71)" opacity="0.1"/><path d="M1066.775,292.193s-1.774,23.314-1.267,24.328,0,36.238,0,36.238,3.548,19.006-1.014,20.02-3.548-21.287-3.548-21.287l-4.562-29.4.507-29.143Z" transform="translate(-692.396 -212.223)" fill="#ffb9b9"/><path d="M1066.775,292.193s-1.774,23.314-1.267,24.328,0,36.238,0,36.238,3.548,19.006-1.014,20.02-3.548-21.287-3.548-21.287l-4.562-29.4.507-29.143Z" transform="translate(-692.396 -212.223)" opacity="0.1"/><path d="M935.626,484.1s-8.363,31.677-8.109,47.135,3.548,37,3.548,37,.507,9.376-.253,10.39,3.8,5.322,3.8,5.322l4.815-2.788,1.774-2.027v-1.774s-2.787-8.616-.507-15.458,3.548-24.074,1.267-29.4l15.712-46.629Z" transform="translate(-610.663 -333.929)" fill="#ffb9b9"/><path d="M919.536,741.118s-3.041-3.8-5.068-2.534-5.322,9.883-5.322,9.883-11.4,10.9-3.294,11.4,11.657-2.281,12.671-4.308,10.39-7.349,10.39-7.349-1.014-9.63-2.534-9.883-3.8,3.8-3.8,3.8Z" transform="translate(-595.079 -495.16)" fill="#2f2e41"/><path d="M1019.059,476.457v31.424a97.139,97.139,0,0,0,.76,11.4c.76,5.575-4.308,47.135-4.308,47.135l.507,7.349,6.335-.507.76-6.335,9.123-27.876s3.041-16.979,1.52-23.314,7.856-46.882,7.856-46.882Z" transform="translate(-666.473 -324.263)" fill="#ffb9b9"/><path d="M1010.419,745.782l1.877-.408s1.418-3.14,3.192-2.38a19.134,19.134,0,0,1,3.527,2.114l.781,1.434a30.285,30.285,0,0,0,4.055,6.335c2.281,2.534,4.815,8.109,1.013,8.616s-8.869.76-10.39-.507-.507-3.294-2.027-3.8-2.788-2.027-2.534-2.534S1010.419,745.782,1010.419,745.782Z" transform="translate(-662.902 -498.05)" fill="#2f2e41"/><circle cx="12.164" cy="12.164" r="12.164" transform="translate(340.421 29.794)" fill="#ffb9b9"/><path d="M967.015,240.286l3.347-1.169s-1.32,2.182,5.776,3.449,14.444,1.716,17.739-2.437c0,0,1.267-.6,3.041,1.17s2.788,1.267,2.788,1.267l-1.267,6.589L995.9,261.319l-3.294,9.123-9.376-2.027L973.1,261.066l-3.8-9.883V242.06Z" transform="translate(-635.717 -178.561)" fill="#464d77"/><path d="M975.963,245.47,978.5,243.7s8.616,1.52,9.123,5.575l-6.589,12.671a14.425,14.425,0,0,1-.253,10.9c-2.534,5.829-2.281,7.1-2.281,7.1l-1.774,7.6-32.184,2.534a22.8,22.8,0,0,0-1.774-3.548c-.507-.507-.507-2.281,0-2.281s0-.76-.507-1.521-.76-1.014,0-2.027-1.267-10.137-1.267-10.137v-9.883l-8.616-11.4s3.041-4.562,4.561-5.068,8.753-2.506,8.753-2.506l1.637,2.41,2.281,18.342L952.9,273.6l13.871-2.357,5.389-9.047,3.548-10.643Z" transform="translate(-613.748 -180.198)" fill="#464d77"/><path d="M1066.865,258.246l2.027,1.52s1.774,14.191,1.267,15.205-9.376,2.027-9.63,1.52S1066.865,258.246,1066.865,258.246Z" transform="translate(-695.02 -190.693)" fill="#464d77"/><path d="M927.444,300.506s1.774,23.314,1.267,24.328,0,36.239,0,36.239-3.548,19.006,1.014,20.02,3.548-21.287,3.548-21.287l4.561-29.4-.507-29.143Z" transform="translate(-610.59 -217.495)" fill="#ffb9b9"/><path d="M951.683,237.09l2.534,16.725s-2.281,24.835-1.774,29.9l.507,1.521s-1.014-.507-1.267.507a23.708,23.708,0,0,0,0,4.308s-1.52,1.52-2.027,9.883-6.589,28.383-4.308,29.143,15.965,4.562,23.314,3.8,33.7-9.63,33.451-11.911-12.924-34.465-12.924-34.465a33.285,33.285,0,0,1-2.281-4.308c0-.507,3.041-2.534,2.281-4.561s-4.815-23.314-4.815-23.314l2.788-15.205-3.8-1.014-2.788,14.7s-10.9,5.322-22.3.507l-2.534-17.232Z" transform="translate(-621.652 -176.633)" fill="#2f2e41"/><path d="M929.272,260.324l-2.027.76s-3.8,15.965-2.788,15.965,13.178,1.52,13.178,1.014-2.281-12.924-2.281-12.924Z" transform="translate(-608.617 -192.011)" fill="#464d77"/><path d="M998.884,150.389s18.753,12.924,23.821,7.1-8.87-10.9-8.87-10.9l-11.657-1.267Z" transform="translate(-655.928 -119.075)" fill="#2f2e41"/><path d="M200.922,73.569V320.843H413.446V73.569Zm11.34,226.79a3.658,3.658,0,1,1,3.658-3.658A3.658,3.658,0,0,1,212.261,300.359Zm0-17.924a3.658,3.658,0,1,1,3.658-3.658,3.658,3.658,0,0,1-3.658,3.658Zm0-17.558a3.658,3.658,0,1,1,3.658-3.658A3.658,3.658,0,0,1,212.261,264.878Zm0-17.924a3.658,3.658,0,1,1,3.658-3.658A3.658,3.658,0,0,1,212.261,246.954Zm0-17.924a3.658,3.658,0,1,1,3.658-3.658,3.658,3.658,0,0,1-3.658,3.658Zm0-17.558a3.658,3.658,0,1,1,3.658-3.658A3.658,3.658,0,0,1,212.261,211.472Zm0-17.924a3.658,3.658,0,1,1,3.658-3.658A3.658,3.658,0,0,1,212.261,193.548Zm0-17.924a3.658,3.658,0,1,1,3.658-3.658A3.658,3.658,0,0,1,212.261,175.625Zm0-17.558a3.658,3.658,0,1,1,3.658-3.658,3.658,3.658,0,0,1-3.658,3.658Zm0-17.924a3.658,3.658,0,1,1,3.658-3.658,3.658,3.658,0,0,1-3.658,3.658Zm0-17.924a3.658,3.658,0,1,1,3.658-3.658,3.658,3.658,0,0,1-3.658,3.658Zm0-17.192a3.658,3.658,0,1,1,3.658-3.658,3.658,3.658,0,0,1-3.658,3.658Z" transform="translate(-149.853 -73.569)" fill="#f2f2f2"/><path d="M352.137,18.779v-.732H164.763V0h-.732V18.047H139.613v.732h24.419V35.847H139.613v.732h24.419V53.648H139.613v.732h24.419V71.447H139.613v.732h24.419V89.247H139.613v.732h24.419v17.069H139.613v.732h24.419v17.068H139.613v.732h24.419v17.069H139.613v.732h24.419v17.068H139.613v.732h24.419v17.068H139.613v.732h24.419v17.069H139.613v.732h24.419v17.068H139.613v.732h24.419v17.068H139.613v.732h24.419v14.9h.732v-14.9H352.137v-.732H164.763V214.578H352.137v-.732H164.763V196.778H352.137v-.732H164.763V178.978H352.137v-.732H164.763V161.178H352.137v-.732H164.763V143.378H352.137v-.732H164.763V125.578H352.137v-.732H164.763V107.779H352.137v-.732H164.763V89.979H352.137v-.732H164.763V72.179H352.137v-.732H164.763V54.379H352.137v-.732H164.763V36.579H352.137v-.732H164.763V18.779Z" transform="translate(-88.544 0)" fill="#3f3d56" opacity="0.3"/><path d="M304.336,246.3a42.256,42.256,0,0,1-7.088,4.443,8.447,8.447,0,0,1-5.188,1.181c-1.775-.337-3.368-2.151-2.826-3.874a3.063,3.063,0,0,1,2.359-1.948,5.422,5.422,0,0,1,3.131.452,9,9,0,0,1,4.25,3.771,6.665,6.665,0,0,0,1.708,2.414,4.852,4.852,0,0,0,2.169.628,15.072,15.072,0,0,0,5.392.022,5.118,5.118,0,0,0,3.889-3.391" transform="translate(-205.792 -182.949)" fill="none" stroke="#3f3d56" stroke-miterlimit="10" stroke-width="2"/><path d="M367.381,223.933q.208,8.059-.225,16.117l3.812-.72c1.405-.266,3-.671,3.639-1.952a3.189,3.189,0,0,0-.957-3.6,9.336,9.336,0,0,0-3.57-1.731L368,231.384" transform="translate(-255.28 -168.932)" fill="none" stroke="#3f3d56" stroke-miterlimit="10" stroke-width="2"/><path d="M410.159,239.693a13.418,13.418,0,0,0-4.2-.13,4.647,4.647,0,0,0-3.385,2.253c-1.178,2.313.627,5.161,2.914,6.389a9.426,9.426,0,0,0,6.215.936" transform="translate(-277.51 -178.769)" fill="none" stroke="#3f3d56" stroke-miterlimit="10" stroke-width="2"/><path d="M314.365,116.093q-5.251,4.937-10.5,0a14.446,14.446,0,0,1-4.443-10.547V73.569h19.387v31.976A14.445,14.445,0,0,1,314.365,116.093Z" transform="translate(-212.321 -73.569)" fill="#464d77"/><path d="M498.808,382.387c0,29.933-17.792,40.383-39.743,40.383-.508,0-1.017-.007-1.522-.018-1.017-.022-2.026-.07-3.021-.139-19.811-1.4-35.2-12.389-35.2-40.226,0-28.8,36.806-65.151,39.578-67.847a0,0,0,0,1,0,0h0c.106-.106.161-.157.161-.157S498.808,352.458,498.808,382.387Z" transform="translate(-288.364 -226.293)" fill="#464d77"/><path d="M496.316,418.191l14.536-20.309-14.573,22.54-.037,2.33c-1.017-.022-2.026-.069-3.021-.139l1.566-29.944-.011-.234.026-.04.15-2.831-14.61-22.595L495,387.442l.037.6,1.181-22.624L483.707,342.07l12.66,19.38L497.6,314.54l0-.161v.157l-.2,36.989,12.451-14.664-12.5,17.851-.329,20.258,11.628-19.442L496.971,377.95l-.183,11.263,16.874-27.061-16.94,30.99Z" transform="translate(-327.064 -226.293)" fill="#767676"/></g></svg>