<svg xmlns="http://www.w3.org/2000/svg" xmlns:xlink="http://www.w3.org/1999/xlink" width="357.748" height="266.632" viewBox="0 0 357.748 266.632"><defs><linearGradient id="a" x1="0.5" y1="1" x2="0.5" gradientUnits="objectBoundingBox"><stop offset="0" stop-color="gray" stop-opacity="0.251"/><stop offset="0.54" stop-color="gray" stop-opacity="0.122"/><stop offset="1" stop-color="gray" stop-opacity="0.102"/></linearGradient></defs><g transform="translate(-0.012 -0.057)"><path d="M422.339,213c-.064.378-.128.757-.2,1.135a139.256,139.256,0,0,1-11.589,36.707q-.274.567-.557,1.135a104.905,104.905,0,0,1-13.059,20.139,41.79,41.79,0,0,1-9.38,8.8c-5.033,3.209-10.917,4.513-16.7,5.58-6.009,1.111-12.1,2.027-18.169,3.04q-3.229.527-6.418,1.1c-5.867,1.061-11.691,2.287-17.375,3.911a90.322,90.322,0,0,0-20.267,8.336q-.77.439-1.523.9c-.5.3-1.013.615-1.5.932s-.983.632-1.469.953l-.75.507c-.247.162-.49.338-.733.5-.723.493-1.436,1.013-2.148,1.513l-.027.02q-.7.507-1.4,1.013c-2.631,1.949-5.205,3.989-7.769,6.036l-1.618,1.294q-1.253.993-2.506,1.983c-.49.388-.986.773-1.479,1.159-.358.28-.713.561-1.078.838-1.827,1.409-3.678,2.787-5.567,4.1-.449.314-.905.628-1.351.936a71.24,71.24,0,0,1-12,6.614l-.054.024a47.631,47.631,0,0,1-6.377,2.2,38.176,38.176,0,0,1-3.756.814,33.2,33.2,0,0,1-10.184.176c-6.651-.942-12.883-4.053-19.517-5.094-13.687-2.125-26.979,4.729-39.858,10.11q-4.729,1.979-9.563,3.716-3.2,1.155-6.435,2.2a202.6,202.6,0,0,1-40.375,8.637,93.3,93.3,0,0,1-17.142.463,57.9,57.9,0,0,1-6.418-.834c-7.218-1.351-13.957-4.219-19.385-9.458-4.509-4.286-7.691-9.89-10.117-15.737q-1.463-3.523-2.577-7.208a80.391,80.391,0,0,1-2.625-11.765c-.132-.9-.25-1.8-.338-2.7q-.263-2.321-.392-4.661a80.73,80.73,0,0,1,2.4-24.658c2.3-8.914,6.137-17.45,7.826-26.448.071-.378.135-.757.2-1.135q.338-2.027.513-4.128c.851-11-2.442-21.777-5.043-32.565-.091-.378-.182-.757-.27-1.135q-.422-1.794-.8-3.591C73,198,72.343,185.789,74.481,174.4c.068-.378.145-.76.223-1.135a56.626,56.626,0,0,1,7.891-19.737,68.4,68.4,0,0,1,14.862-15.724q4.1-3.276,8.488-6.131,3.151-2.047,6.418-3.874a106.967,106.967,0,0,1,57.517-13.511q1.577.081,3.148.216,1.648.142,3.287.338c12.778,1.476,25.212,5.134,37.571,9.137q6.212,2.027,12.4,4.053,2.756.9,5.509,1.773c9,2.841,18.152,5.4,27.387,7.337q3.212.676,6.418,1.233A151.686,151.686,0,0,0,288.1,140.7q4.391.108,8.782-.091,2.219-.1,4.442-.3c15.3-1.311,30.063-5.705,44.881-9.833,2.142-.6,4.286-1.192,6.418-1.767,2.817-.757,5.638-1.49,8.468-2.165,17.625-4.232,33.332-1.8,49.718,6.928,3.716,1.983,7.431,4.374,9.728,8.076s2.854,8.286,3.28,12.7c.6,6.276,1.013,12.64,1.145,19.031,0,.378,0,.757.024,1.135A202.473,202.473,0,0,1,422.339,213Z" transform="translate(-70.44 -94.226)" fill="#464d77" opacity="0.1"/><path d="M313.308,251.1h-1.152v1.135h1.3Zm-13.055,0a.073.073,0,0,0,0,.027l-.1.939v.169h10v-.068l.713-1.067Zm-26.735,0V214.4H285c-.122-.1-.247-.2-.375-.3l-.169-.128c-.071-.057-.142-.111-.216-.162s-.25-.179-.382-.267-.213-.145-.338-.216l-.078-.051h-9.927v-2.01l-.267.128-.284.159h-.02l-.061.037-.176.115c-.061.037-.122.074-.179.115-.176.118-.338.247-.524.378l-.169.135c-.115.088-.223.179-.338.27-.449.368-.892.753-1.351,1.108-.115.091-.23.179-.338.263a8.725,8.725,0,0,1-.763.5,3.629,3.629,0,0,1-.338.186l-.189.088-.172.074h0a7.176,7.176,0,0,1-1.257.4V251.1H249.866a.52.52,0,0,0,.034.118c.095.338.189.676.28,1.013H267.1v39.348h.263l.3.02.547.041.885.088.4.047.439.054h.064c.253.034.51.074.77.115l.166.027.372.061.534.095h0l1.28-.068h0l.176.037a1.023,1.023,0,0,1,.216.044V252.24h26.621v-.169l.1-.939a.075.075,0,0,1,0-.027Zm39.791,0h-1.152v1.135h1.3Zm-13.775,0-.115,1.135h11.123l.757-1.135Zm-26.009,0V214.4h11.485c-.122-.1-.247-.2-.375-.3l-.169-.128c-.071-.057-.142-.111-.216-.162s-.25-.179-.382-.267-.213-.145-.338-.216l-.078-.051h-9.934v-2.01l-.267.128-.284.159h-.02l-.061.037-.176.115c-.061.037-.122.074-.179.115-.176.118-.338.247-.524.378l-.169.135c-.115.088-.223.179-.338.27-.449.368-.892.753-1.351,1.108-.115.091-.23.179-.338.263a8.725,8.725,0,0,1-.763.5,3.629,3.629,0,0,1-.338.186l-.189.088-.172.074h0a7.176,7.176,0,0,1-1.257.4V251.1H249.866a.52.52,0,0,0,.034.118c.095.338.193.676.284,1.013H267.1v39.345l.263.017.3.02.547.041.885.088.4.047.439.054h.064c.253.034.51.074.77.115l.166.027.372.061.534.095h0l1.28-.068h0l.176.037a1.023,1.023,0,0,1,.216.044V252.24h25.911l.122-1.135Zm87.033-76.44H432.92c0-.378,0-.757-.024-1.135H360.557V128.963c-2.148.574-4.293,1.169-6.418,1.767v42.8h-78.7l-.2-.216.3-.338h0L304.81,140.85q-4.391.2-8.782.091l-22.51,24.692v-27q-3.222-.557-6.418-1.233V164.39l-32.91-36.1c-4.131-1.351-8.262-2.726-12.4-4.053l44.732,49.076-.2.216h-82.1V115.094q-1.642-.186-3.287-.338-1.571-.138-3.148-.216v58.99H120.263V128.065q-3.273,1.824-6.418,3.874V173.53H82.563c-.078.375-.155.757-.223,1.135h31.478v38.6H84.083c.088.378.179.757.27,1.135h29.478V251.1H88.873c-.064.378-.128.757-.2,1.135h25.158V354.875a57.9,57.9,0,0,0,6.418.834V252.24H177.78v94.369q3.236-1.05,6.435-2.2V252.24h82.871v82.452a47.634,47.634,0,0,0,6.377-2.2l.054-.024V252.24h80.6v38.666q3.205-.578,6.418-1.1V252.24h57.311q.284-.567.557-1.135H360.557V214.4h69.458c.071-.378.135-.757.2-1.135H360.557Zm-240.291,0H177.78v38.6H120.263Zm0,76.44V214.4H177.78V251.1Zm63.952-76.44h82.868v38.6H184.215Zm0,76.44V214.4h82.868V251.1Zm169.9,0h-80.6V214.4h80.6Zm0-37.831h-80.6V175.7l1.132-1.034h79.47ZM300.256,251.1a.073.073,0,0,0,0,.027l-.1.939v.169h10v-.068l.713-1.067Zm13.055,0H312.16v1.135h1.3Zm-39.791,0V214.4h11.485c-.122-.1-.247-.2-.375-.3l-.169-.128c-.071-.057-.142-.111-.216-.162s-.25-.179-.382-.267-.213-.145-.338-.216l-.078-.051h-9.931v-2.01l-.267.128-.284.159h-.02l-.061.037-.176.115c-.061.037-.122.074-.179.115-.176.118-.338.247-.524.378l-.169.135c-.115.088-.223.179-.338.27-.449.368-.892.753-1.351,1.108-.115.091-.23.179-.338.263a8.725,8.725,0,0,1-.763.5,3.629,3.629,0,0,1-.338.186l-.189.088-.172.074h0a7.176,7.176,0,0,1-1.257.4V251.1H249.866a.52.52,0,0,0,.034.118c.095.338.189.676.28,1.013H267.1v39.348h.263l.3.02.547.041.885.088.4.047.439.054h.064c.253.034.51.074.77.115l.166.027.372.061.534.095h0l1.28-.068h0l.176.037a1.023,1.023,0,0,1,.216.044V252.24h26.621v-.169l.1-.939a.075.075,0,0,1,0-.027Z" transform="translate(-78.312 -94.489)" fill="#464d77" opacity="0.1"/><path d="M272.308,209.132h.513a1.229,1.229,0,0,1-.611-.99h0c0-.784.959-1.422,2.131-1.422h14.913c1.172,0,2.131.638,2.131,1.422h0c0,.78-.959,1.422-2.131,1.422h-.5a1.233,1.233,0,0,1,.608.99c0,.676-.7,1.23-1.628,1.382h4.293c1.169,0,2.128.638,2.128,1.422s-.959,1.419-2.128,1.419H277.1c-1.169,0-2.128-.638-2.128-1.419,0-.676.7-1.23,1.628-1.382h-4.293c-1.169,0-2.128-.638-2.128-1.422S271.133,209.132,272.308,209.132Z" transform="translate(-202.703 -155.532)" fill="#464d77" opacity="0.1"/><path d="M750.828,249.2h.5a1.233,1.233,0,0,1-.611-.993h0c0-.78.959-1.419,2.131-1.419h14.913c1.172,0,2.131.638,2.131,1.419h0c0,.784-.959,1.422-2.131,1.422h-.5a1.236,1.236,0,0,1,.608.993c0,.676-.7,1.226-1.628,1.378h4.293c1.169,0,2.128.642,2.128,1.422s-.959,1.422-2.128,1.422h-14.91c-1.169,0-2.128-.638-2.128-1.422,0-.676.7-1.23,1.628-1.378h-4.3c-1.169,0-2.128-.642-2.128-1.422S749.666,249.2,750.828,249.2Z" transform="translate(-519.588 -182.067)" fill="#464d77" opacity="0.1"/><path d="M204.578,420.665h.5a1.236,1.236,0,0,1-.608-.993h0c0-.78.956-1.422,2.128-1.422h14.913c1.172,0,2.131.642,2.131,1.422h0c0,.784-.959,1.422-2.131,1.422h-.5a1.236,1.236,0,0,1,.608.993c0,.676-.7,1.226-1.628,1.378h4.293c1.172,0,2.128.638,2.128,1.422s-.956,1.422-2.128,1.422H209.371c-1.169,0-2.128-.642-2.128-1.422,0-.676.7-1.23,1.628-1.382h-4.293c-1.169,0-2.128-.638-2.128-1.419S203.409,420.665,204.578,420.665Z" transform="translate(-157.851 -295.611)" fill="#464d77" opacity="0.1"/><path d="M672.23,713.44q-1.253.993-2.506,1.983c-.49.388-.986.773-1.479,1.159-.358.28-.713.561-1.078.838-1.827,1.409-3.678,2.787-5.567,4.1-.449.314-.905.628-1.351.936a71.239,71.239,0,0,1-12,6.614l-.054.024V713.44Z" transform="translate(-453.029 -491.092)" fill="#65617d"/><path d="M528.208,369.908l.378-11.67c-.226-.176-.456-.338-.676-.5a62.206,62.206,0,0,0-.595-10.407c-1.527-11.67-11.441-11.924-14.237-9.515a6.753,6.753,0,0,1-1.206.831c.253-1.665.568-3.334.794-4.982,1.223-8.89-.676-18.892-7.573-24.638-2.888-2.4-6.418-3.878-9.59-5.888-5.681-3.584-10.171-8.877-15.916-12.366s-13.815-4.8-18.828-.311c-1.942,1.736-3.2,4.145-5.188,5.82-3.716,3.121-9.509,3.327-12.751,6.813h0c-.162.176-.318.355-.466.544-2.7,3.466-1.963,8.38-1.1,12.68,1.037,5.175.608,9.323,5.046,10.809.017.206.03.412.054.615A21.925,21.925,0,0,0,456,343.524l-.719.257c-1.919.676-3.645,1.331-4.749,1.78-4.053,1.652-12.586,3.8-12.586,3.8s-.2,2.432-.166,6.019c-2.844,3.091-7.59,8.522-8.985,11.741-2.027,4.7-13.477,18.142-16.528,20.172s-6.357,4.438-6.357,4.438-4.83,2.665-7.117,2.918c-1.584.176-6.485-.763-6.485-.763s-19.574-23.982-18.3-5.58,16.906,19.027,16.906,19.027l15.764-.253s8.519,1.142,12.332-2.027c3.256-2.7,20.132-17.527,25.553-24.253.125.138.25.274.382.405,0,0,2.158-2.79,2.415,0s-1.4,4.053-.51,5.067,3.56,4.567,3.685,5.962-3.557,7.093,2.669,11.417c.1.068.2.132.318.2,1.111,2.53,4.645,5.006,4.645,5.006l19.068-.253,35.977,2.79s1.071-.942,2.52-2.483c1.935,1.777,4.621,3.3,7.647,2.364,0,0,4.324-5.2,4.452-8.624,0,0-2.8-7.232-4.053-9.387s.892-6.85.892-6.85,1.523-4.567,2.415-4.567.253-3.04.253-3.04a3.7,3.7,0,0,1-.382-3.425A32.781,32.781,0,0,0,528.208,369.908Z" transform="translate(-271.418 -209.09)" fill="url(#a)"/><path d="M690.833,458.94l-1.351,1.581h0l-5.458,6.357-7.131.432-11.414.7s-15.389-18.544-12.5-22.581A7.389,7.389,0,0,0,654,440.241c-.027-.25-.064-.5-.108-.746a21.58,21.58,0,0,0-1.8-5.54l.378-.172.243-.111,13.457-6.141,3.331-1.52a8.988,8.988,0,0,0,.912,2.628c.064.128.135.257.209.378,4.59,7.6,19.311,2.793,19.311,2.793Z" transform="translate(-455.611 -300.75)" fill="#ee8e9e"/><path d="M779.762,455.508a22.191,22.191,0,0,1-.851,6.587L759.863,465l-.713-4.945-2.82-19.527,2.648-2.648a7.07,7.07,0,0,0,6.056-1.513c2.773-2.4,12.613-2.145,14.126,9.458A64.218,64.218,0,0,1,779.762,455.508Z" transform="translate(-524.641 -306.806)" fill="#ee8e9e"/><path d="M791.325,616.081s4.286-5.171,4.415-8.576l-4.29-7.191-3.783-4.053L780.6,609.9S785.268,617.973,791.325,616.081Z" transform="translate(-540.713 -413.493)" fill="#dfe5ee"/><path d="M791.325,616.081s4.286-5.171,4.415-8.576l-4.29-7.191-3.783-4.053L780.6,609.9S785.268,617.973,791.325,616.081Z" transform="translate(-540.713 -413.493)" opacity="0.1"/><path d="M286.68,699.244c-.358.28-.713.561-1.078.838-1.827,1.409-3.678,2.787-5.567,4.1-.449.314-.905.628-1.351.936H170.933l-31.88-1.142-25.638-.216L107,703.426l-32.022-1.689a80.394,80.394,0,0,1-2.638-11.775c-.132-.9-.25-1.8-.338-2.7l34.984,1.939,6.418.361,57.517,3.209,6.435.358,82.871,4.628,6.377.358h.054Z" transform="translate(-71.465 -473.755)" fill="#d48a9b"/><path d="M329.128,631.946a90.318,90.318,0,0,0-20.267,8.336c-.51.294-1.013.594-1.523.9s-1.013.615-1.5.932-.983.632-1.469.952l-.75.507-.733.5c-.723.5-1.436,1.013-2.148,1.513l-.027.02q-.7.507-1.4,1.013c-2.631,1.949-5.205,3.989-7.769,6.036q-.811.648-1.625,1.294l-2.5,1.983c-.49.388-.986.773-1.479,1.159-.358.28-.713.561-1.078.838l-18.916-.9h-.054l-6.377-.3L176.6,652.8l-6.435-.307-57.517-2.733-6.418-.307-34.66-1.631c-.132-.9-.25-1.8-.338-2.7q-.263-2.321-.392-4.661l35.386-12.5,6.418-2.273,5.83-2.06,10.623.554,24.553,1.26h0l16.524.868,6.435.338,4.111.216h0l.983.054h0l34.6,1.807h0l.365.024h0l15.437.8h.277l1.544.078h0l5.263.277,6.58.338h0l2.169.115h0l.409.024,3.067.159h0l.875.044h0l2.929.155h0l1.165.064h.28l2.739.145,4.243.223h.02l1.317.068h.142l.787.044,1.932.1h0l1.689.088h.017l1.895.1h.03l1.436.078h0l1.1.057,3.908.206h0l.7.037h.243l.338.02h0l1.145.061h0l.513.027h0l3.986.206h.365l5.884-.051h.04l22.371-.182h2.212l7.2-.057h1.074Z" transform="translate(-70.697 -431.618)" fill="#efc6cd"/><path d="M387.431,642.2l2.081,11.069,56.572-.851s4.256,1.229,4.161-2.175c0,0,8.61-8.137,52.221,1.324l-16.744-13.15-45.769,2.459L386.88,639.46Z" transform="translate(-279.984 -441.412)" fill="#464d77"/><path d="M391.59,640.583l1.986,12.015s48.641-1.419,56.288-.095l-5.779-10.975S414.674,638.786,391.59,640.583Z" transform="translate(-283.103 -442.44)" fill="#fff"/><path d="M391.59,640.583l1.986,12.015s48.641-1.419,56.288-.095l-5.779-10.975S414.674,638.786,391.59,640.583Z" transform="translate(-283.103 -442.44)" opacity="0.1"/><path d="M393.74,640.537l1.959,11.174s48.022-1.317,55.589-.088l-5.7-10.2S416.533,638.865,393.74,640.537Z" transform="translate(-284.527 -442.438)" fill="#fff"/><path d="M396.35,641.617l1.908,10.451s46.969-1.233,54.383-.081l-5.573-9.549S418.647,640.039,396.35,641.617Z" transform="translate(-286.255 -443.173)" opacity="0.1"/><path d="M397.47,640.5l1.919,10.471s46.968-1.233,54.383-.081l-5.587-9.559S419.767,638.937,397.47,640.5Z" transform="translate(-286.997 -442.439)" fill="#fff"/><path d="M285.838,557.41s2.459,3.212-1.132,8.066-6.556,8.948-5.357,11.974c0,0,5.4-9.012,9.829-9.12S290.692,562.828,285.838,557.41Z" transform="translate(-208.596 -387.766)" fill="#464d77"/><path d="M286.11,557.41a3.905,3.905,0,0,1,.5,1.013c4.3,5.067,6.6,9.8,2.459,9.9-3.854.108-8.475,7-9.583,8.742q.057.2.132.4s5.4-9.012,9.829-9.12S290.964,562.828,286.11,557.41Z" transform="translate(-208.869 -387.766)" opacity="0.1"/><path d="M311.507,568.118c0,1.128-.128,2.047-.284,2.047s-.284-.919-.284-2.047.159-.6.314-.6S311.507,566.986,311.507,568.118Z" transform="translate(-229.695 -394.376)" fill="#ffd037"/><path d="M313.462,572c-.993.544-1.858.872-1.932.733s.676-.676,1.662-1.229.6-.149.676,0S314.455,571.462,313.462,572Z" transform="translate(-230.083 -396.913)" fill="#ffd037"/><path d="M249.845,557.41s-2.459,3.212,1.135,8.066,6.553,8.948,5.357,11.974c0,0-5.421-9.012-9.833-9.12S244.991,562.828,249.845,557.41Z" transform="translate(-185.584 -387.766)" fill="#464d77"/><path d="M249.845,557.41a4.054,4.054,0,0,0-.5,1.013c-4.3,5.067-6.6,9.8-2.459,9.9,3.854.108,8.478,7,9.586,8.742a4.069,4.069,0,0,1-.132.4s-5.421-9.012-9.833-9.12S244.991,562.828,249.845,557.41Z" transform="translate(-185.584 -387.766)" opacity="0.1"/><path d="M247.13,568.118c0,1.128.128,2.047.284,2.047s.284-.919.284-2.047-.159-.6-.314-.6S247.13,566.986,247.13,568.118Z" transform="translate(-187.439 -394.376)" fill="#ffd037"/><path d="M241.309,572c.993.544,1.861.872,1.935.733s-.676-.676-1.662-1.229-.6-.149-.676,0S240.316,571.462,241.309,572Z" transform="translate(-183.186 -396.913)" fill="#ffd037"/><path d="M267.151,600.97l-.122,1.013-.172,1.415-.071.591-.172,1.419-.074.591-.176,1.419L264.4,623.537c-.176,1.439-2.527,2.56-5.364,2.56H248.826c-2.837,0-5.185-1.121-5.361-2.56L241.5,607.418,241.324,606l-.071-.591-.176-1.419-.071-.591-.172-1.415-.125-1.013c-.1-.814,1.172-1.5,2.78-1.5h20.9C265.989,599.47,267.263,600.156,267.151,600.97Z" transform="translate(-183.184 -415.618)" fill="#65617d"/><path d="M196.855,551.59l-.172,1.419H170.822l-.172-1.419Z" transform="translate(-112.999 -365.236)" fill="#9d9cb5"/><path d="M197.089,557.54l-.172,1.419H171.546l-.176-1.419Z" transform="translate(-113.476 -369.176)" fill="#9d9cb5"/><path d="M197.325,563.49l-.172,1.415H172.272l-.172-1.415Z" transform="translate(-113.96 -373.116)" fill="#9d9cb5"/><path d="M398.912,595.509s-6.56-6.306-6.306,1.892S398.912,595.509,398.912,595.509Z" transform="translate(-283.771 -411.461)" fill="#ee8e9e"/><path d="M445.1,508.568a9.57,9.57,0,0,1-1.952,3.01c-5.688,6.85-21.871,21.088-25.043,23.729-3.783,3.155-12.234,2.027-12.234,2.027l-15.639.253s-15.514-.632-16.778-18.916,18.163,5.55,18.163,5.55,4.864.932,6.435.757c2.27-.25,7.063-2.9,7.063-2.9s3.28-2.4,6.306-4.415,14.379-15.389,16.4-20.057c1.28-2.962,5.4-7.806,8.252-10.947,1.635-1.807,2.847-3.04,2.847-3.04S445.983,504.657,445.1,508.568Z" transform="translate(-271.054 -338.9)" fill="#ee8e9e"/><path d="M567.979,508.542a9.569,9.569,0,0,1-1.952,3.01c-5.742-5.847-6.941-17.514-7.076-24.932,1.635-1.807,2.847-3.04,2.847-3.04S568.86,504.63,567.979,508.542Z" transform="translate(-393.932 -338.874)" opacity="0.1"/><path d="M689.479,475.54h0l-5.455,6.357-7.131.432-11.414.7s-15.389-18.544-12.5-22.581A7.389,7.389,0,0,0,654,455.26c-.027-.25-.064-.5-.108-.746a21.579,21.579,0,0,0-1.8-5.54l.378-.172.243-.111a24.217,24.217,0,0,1,1.236,5.171c.037.24.071.49.1.746.118.912.226,1.925.338,3.04.878,10.208,7.3,14.048,10.2,15.271a29.4,29.4,0,0,1,2.729,1.321,14.562,14.562,0,0,0,9.154,1.655c7.154-.939,12.988-6.138,12.988-6.138l.03,5.117Z" transform="translate(-455.611 -315.769)" opacity="0.1"/><path d="M629.308,512.067s-46.921-.128-53.106-4.415-2.52-9.965-2.648-11.353-2.773-4.918-3.655-5.931.757-2.27.5-5.043-2.395,0-2.395,0c-8.833-8.958-6.941-31.66-6.941-31.66s8.445-2.142,12.5-3.787c1.1-.446,2.807-1.081,4.729-1.767l.713-.257c4.955-1.773,10.846-3.776,10.846-3.776s1.132-.8,2.27,1.594a21.054,21.054,0,0,1,1.463,5.708c.037.24.071.49.1.747.118.912.226,1.925.338,3.04.878,10.208,7.3,14.048,10.2,15.271a29.391,29.391,0,0,1,2.729,1.321,14.562,14.562,0,0,0,9.154,1.655c7.154-.939,12.988-6.138,12.988-6.138l.03,5.117.088,15.376Z" transform="translate(-395.221 -312.63)" fill="#dfe5ee"/><path d="M657.265,583.2l-.757,4.793s-18.669,4.665-25.982,6.053-23.084-.378-24.219,2.648,4.793,7.191,4.793,7.191l18.916-.253,35.7,2.777s13.623-11.984,9.208-20.311S657.265,583.2,657.265,583.2Z" transform="translate(-425.197 -403.694)" fill="#ee8e9e"/><path d="M629.549,474.58s-8.58,7.063-6.938,10.471S629.549,474.58,629.549,474.58Z" transform="translate(-435.951 -332.914)" opacity="0.1"/><path d="M596.076,512.29s-8.7,15.011-8.2,16.146,2.9,5.171,2.773,2.145S596.076,512.29,596.076,512.29Z" transform="translate(-413.075 -357.886)" opacity="0.1"/><path d="M613.934,520.14s-2.027,9.333-4.036,13.244S613.934,520.14,613.934,520.14Z" transform="translate(-427.4 -363.085)" opacity="0.1"/><path d="M644.3,429.046a21.821,21.821,0,0,1-16.585,11.221h-.041a21.784,21.784,0,0,1-15.356-4.02c5.067-1.831,11.559-4.033,11.559-4.033s1.132-.8,2.27,1.594l17.031-7.769a9.03,9.03,0,0,0,1.122,3.006Z" transform="translate(-429.275 -300.77)" opacity="0.1"/><path d="M629.321,359.007a21.723,21.723,0,0,1-2.871,10.829,21.981,21.981,0,0,1-3.253,4.33,21.73,21.73,0,0,1-13.228,6.539h-.044a21.311,21.311,0,0,1-2.425.138,21.821,21.821,0,0,1-21.682-19.362,21.189,21.189,0,0,1-.138-2.462,21.821,21.821,0,0,1,43.641,0Z" transform="translate(-411.633 -241.938)" fill="#ee8e9e"/><path d="M753.77,503.116l2.027-3.04s11.1-13.244,21.956-4.793l-.378,11.606a30.775,30.775,0,0,1-1.263,5.4,3.692,3.692,0,0,0,.378,3.408s.632,3.04-.25,3.04-2.4,4.54-2.4,4.54-2.145,4.668-.882,6.813S777,539.428,777,539.428s-4.415-2.648-5.678-7.063c0,0-10.721-8.326-19.047-3.04Z" transform="translate(-521.952 -344.757)" opacity="0.1"/><path d="M785.291,490.838a22.19,22.19,0,0,1-.851,6.587l-19.047,2.9-.713-4.945C767.173,492.781,776.239,484.512,785.291,490.838Z" transform="translate(-530.17 -342.136)" opacity="0.1"/><path d="M753.77,501.116l2.027-3.04s11.1-13.244,21.956-4.793l-.378,11.606a30.774,30.774,0,0,1-1.263,5.4,3.692,3.692,0,0,0,.378,3.408s.632,3.04-.25,3.04-2.4,4.54-2.4,4.54-2.145,4.668-.882,6.813S777,537.428,777,537.428s-4.415-2.648-5.678-7.063c0,0-10.721-8.326-19.047-3.04Z" transform="translate(-521.952 -343.433)" fill="#dfe5ee"/><path d="M775.545,496.61s-18.288,11.228-17.406,21.074C758.139,517.684,768.357,499.636,775.545,496.61Z" transform="translate(-525.819 -347.503)" opacity="0.1"/><path d="M645.425,401.691l.088,15.376c-3.459.155-6.718-.294-9.3-2.533a11.154,11.154,0,0,1-3.378-6.046,21.416,21.416,0,0,1-.439-5.719.3.3,0,0,1,0-.057c.213-4.246,1.189-8.492.676-12.711s-3.07-8.671-7.245-9.559a4.374,4.374,0,0,1-2.337-.848,3.39,3.39,0,0,1-.547-2.662l.122-1.577c.03-.405.044-.807.044-1.209a15.481,15.481,0,0,0-12.5-15.18l-.135-.024a8.535,8.535,0,0,0-3.574-.2c-2.236.517-3.682,2.685-5.742,3.716-3.952,1.973-10.542-.186-14.68-.865-.27-.044-.527-.095-.773-.152a21.171,21.171,0,0,1-.138-2.462,21.821,21.821,0,1,1,40.77,10.829c.064.128.135.257.209.378,4.59,7.6,19.311,2.793,19.311,2.793l.885,27.12Z" transform="translate(-411.56 -241.916)" opacity="0.1"/><path d="M590.892,331.45c2.047-1.034,3.493-3.2,5.742-3.716a8.616,8.616,0,0,1,3.577.2l.135.027a15.494,15.494,0,0,1,12.44,16.393l-.122,1.577a3.341,3.341,0,0,0,.551,2.658,4.269,4.269,0,0,0,2.334.844c4.175.892,6.732,5.32,7.245,9.563s-.48,8.5-.676,12.765.588,8.968,3.81,11.768c5.067,4.391,12.768,1.892,19.473,1.49-2.966,0-5.188-3.06-5.35-6.019s1.155-5.776,2.415-8.445,2.523-5.54,2.243-8.492c-.385-4.053-3.58-7.3-4.8-11.2-1.425-4.54-.051-9.414.595-14.133,1.213-8.836-.676-18.784-7.516-24.5-2.864-2.388-6.367-3.857-9.515-5.857-5.641-3.577-10.09-8.823-15.791-12.3S593.973,289.3,589,293.76c-1.925,1.726-3.168,4.121-5.148,5.786-3.868,3.26-10.015,3.32-13.116,7.32-2.668,3.442-1.946,8.33-1.091,12.6,1.138,5.7.5,10.133,6.587,11.147C580.35,331.268,586.937,333.426,590.892,331.45Z" transform="translate(-400.497 -211.284)" fill="#603556"/><path d="M640.987,412.451c-4.881.6-9.718.905-13.271-2.175-3.222-2.8-4.016-7.5-3.81-11.768s1.192-8.529.676-12.768-3.07-8.667-7.245-9.559a4.333,4.333,0,0,1-2.334-.844,3.367,3.367,0,0,1-.55-2.662l.122-1.577a15.491,15.491,0,0,0-12.441-16.389L602,354.68a8.616,8.616,0,0,0-3.577-.2c-2.236.517-3.682,2.7-5.742,3.716-3.955,1.976-10.539-.182-14.683-.861-6.08-1-5.445-5.438-6.587-11.147-.638-3.189-1.2-6.722-.338-9.742a5.311,5.311,0,0,0-.466.544c-2.669,3.442-1.946,8.33-1.091,12.6,1.138,5.7.5,10.133,6.587,11.147,4.141.676,10.728,2.837,14.683.861,2.047-1.034,3.493-3.2,5.742-3.716a8.616,8.616,0,0,1,3.577.2l.135.027a15.494,15.494,0,0,1,12.44,16.393l-.122,1.577a3.34,3.34,0,0,0,.551,2.658,4.269,4.269,0,0,0,2.334.844c4.175.892,6.732,5.32,7.245,9.563s-.476,8.5-.676,12.765.588,8.968,3.81,11.768c5.067,4.391,12.768,1.892,19.473,1.49A5.137,5.137,0,0,1,640.987,412.451Z" transform="translate(-400.411 -241.442)" opacity="0.1"/><path d="M370.767,579.332l20.824-7.769a1.983,1.983,0,0,1,2.55,1.162h0a1.983,1.983,0,0,1-1.162,2.55l-20.824,7.769-4.465-.446Z" transform="translate(-267.276 -397.055)" fill="#5c5c8e"/><path d="M393.487,572.7h0a1.983,1.983,0,0,1-1.165,2.55l-20.838,7.8-3.351-.338-.483.513,4.465.446L392.94,575.9a1.983,1.983,0,0,0,1.162-2.55h0a1.983,1.983,0,0,0-.811-.99A2.294,2.294,0,0,1,393.487,572.7Z" transform="translate(-267.25 -397.666)" fill="#fff" opacity="0.1"/><path d="M300.337,539.52l1.385,3.712-3.662-.368-.8-.081,1.094-1.162Z" transform="translate(-196.843 -357.243)" fill="#efc8c4"/><path d="M368.8,601a.886.886,0,0,1,.216.233.338.338,0,0,1,0,.362.719.719,0,0,1-.2.145.676.676,0,0,0-.3.5l-.8-.078Z" transform="translate(-267.296 -416.632)" fill="#727a9c"/><path d="M569.615,641.273s18.037-3.787,48.3,1.013l-11.856-8.7-21.571-4.415-15.261,4.053Z" transform="translate(-400.74 -435.286)" fill="#fff"/><path d="M569.615,641.273s18.037-3.787,48.3,1.013l-11.856-8.7-21.571-4.415-15.261,4.053Z" transform="translate(-400.74 -435.286)" opacity="0.1"/><path d="M552.826,647.4s9.083-24.57,55.734.078L591.816,636.7s-40.112-11.083-44.746,1.689Z" transform="translate(-386.065 -437.322)" fill="#fff"/><path d="M552.779,643.886s9.083-26.269,55.734.473l-16.744-11.687s-40.125-13.255-44.769.618Z" transform="translate(-386.019 -433.823)" opacity="0.1"/><path d="M552.826,643.7s9.083-26.658,55.734.084L591.816,632.1S551.7,619.221,547.07,633.11Z" transform="translate(-386.065 -433.626)" fill="#fff"/><path d="M552.8,641.583s9.083-29.627,55.734.456l-16.757-13.15s-40.112-13.511-44.746,2.081Z" transform="translate(-386.039 -431.502)" opacity="0.1"/><path d="M552.8,640.824s9.083-29.988,55.734.095l-16.757-13.15s-40.112-13.511-44.746,2.081Z" transform="translate(-386.039 -430.761)" fill="#fff"/><path d="M968.01,668.71s-11.2,11.995-1.118,17.821a2.8,2.8,0,0,0,3.2.757s-.635-.564.638-1.652a7.557,7.557,0,0,0,1.2-1.317,3.716,3.716,0,0,0,.7-2.25h0s1.466-4.759-3.192-10.937c0,0-.422-2.067-.78-2.294l-.851,2.881a4.962,4.962,0,0,1,2.942,2.172s-2.817-2.212-3.091-1.75c-.054.095-.382,1.55-.382,1.55s3.716.959,4.878,3.513c0,0-3-3.084-5.006-2.962l-.365,2.223s3.976.824,5.4,3.682c0,0-3.249-3.118-5.459-3.189l-.064,2.233s3.861.878,5.04,3.263c0,0-4.118-3.219-5.019-2.75a11.037,11.037,0,0,0,.338,2.594s2.756.676,3.317,2.142c0,0-2.979-1.861-3.236-1.577a11.619,11.619,0,0,0,1.915,3.787,8.4,8.4,0,0,1-2.324-3.641,4.634,4.634,0,0,0-.561,2.591s-1.1-1.223.375-3.236a10.672,10.672,0,0,1-.405-2.425,10.088,10.088,0,0,0-2.185,3.378s-.338-2,2.182-3.955v-2.25s-2.425,2.233-2.925,3.614c0,0-.034-2.094,2.976-4.178l.338-2.185a17.1,17.1,0,0,0-3.124,3.182s.385-1.952,3.243-3.8l.4-1.432s-1.608,1.317-2.027,1.736-.578.338-.578.338a7.093,7.093,0,0,1,2.77-2.682A16.132,16.132,0,0,0,968.01,668.71Z" transform="translate(-661.293 -461.471)" fill="#464d77" opacity="0.1"/><path d="M1107.433,90.91s-14.96,6.756-7.908,16.007a2.8,2.8,0,0,0,2.658,1.935s-.368-.767,1.226-1.28a7.4,7.4,0,0,0,1.615-.753,3.716,3.716,0,0,0,1.51-1.807h0s3.189-3.824,1.273-11.319c0,0,.409-2.071.166-2.419l-1.9,2.331a4.957,4.957,0,0,1,1.878,3.138s-1.743-3.128-2.175-2.8c-.088.064-.949,1.28-.949,1.28s3.04,2.317,3.145,5.124c0,0-1.581-4.006-3.479-4.668l-1.192,1.912s3.351,2.294,3.574,5.482c0,0-1.8-4.128-3.807-5.046l-.922,2.027s3.226,2.3,3.378,4.955c0,0-2.557-4.56-3.57-4.472a10.493,10.493,0,0,0-.676,2.523s2.277,1.689,2.236,3.256c0,0-2.027-2.864-2.365-2.7a11.568,11.568,0,0,0,.307,4.232,8.385,8.385,0,0,1-.74-4.256,4.623,4.623,0,0,0-1.517,2.175s-.547-1.557,1.594-2.844a10.592,10.592,0,0,1,.561-2.391,10.084,10.084,0,0,0-3.314,2.26s.456-1.976,3.54-2.807l.878-2.067s-3.1,1.121-4.094,2.2c0,0,.777-1.946,4.357-2.7l1.152-1.885a17.254,17.254,0,0,0-4.111,1.729s1.111-1.648,4.462-2.256l.915-1.169s-1.993.594-2.55.817-.676.091-.676.091a7.094,7.094,0,0,1,3.611-1.405A17.748,17.748,0,0,0,1107.433,90.91Z" transform="translate(-750.66 -78.841)" fill="#464d77" opacity="0.1"/><path d="M677.754,103.29s-22.476,6.418-11.549,15.97c0,0,.969,2.027,4.08,2.027,0,0-.581-.784,1.824-1.26a14.287,14.287,0,0,0,2.425-.716,4.327,4.327,0,0,0,2.236-1.787h0s4.729-3.783,1.625-11.41c0,0,.564-2.081.186-2.439l-2.81,2.3s2.7,1.388,2.929,3.222c0,0-2.726-3.206-3.378-2.891-.132.064-1.405,1.267-1.405,1.267s4.688,2.425,4.9,5.266c0,0-2.5-4.091-5.4-4.81l-1.756,1.9s5.134,2.408,5.556,5.638c0,0-2.831-4.219-5.9-5.2l-1.351,2.027s4.945,2.412,5.269,5.1c0,0-4-4.678-5.529-4.621a7.919,7.919,0,0,0-.963,2.537s3.493,1.783,3.476,3.351c0,0-3.155-2.952-3.675-2.8,0,0-.358,2.78.581,4.286a6.42,6.42,0,0,1-1.236-4.32,5.079,5.079,0,0,0-2.236,2.155s-.872-1.584,2.337-2.827c0,0,.409-2.155.784-2.405,0,0-3.445.919-4.955,2.2,0,0,.635-1.986,5.283-2.743l1.277-2.067s-4.661,1.054-6.141,2.118c0,0,1.125-1.946,6.529-2.621l1.689-1.875a33.235,33.235,0,0,0-6.181,1.638s1.638-1.638,6.695-2.162l1.351-1.155s-3,.547-3.841.757-1.013.074-1.013.074a13.305,13.305,0,0,1,5.4-1.324S677.95,103.432,677.754,103.29Z" transform="translate(-462.975 -87.039)" fill="#464d77" opacity="0.1"/><path d="M893.33,807.792s11.316-11.887,1.294-17.811a2.8,2.8,0,0,0-3.192-.79s.632.571-.652,1.648a7.623,7.623,0,0,0-1.213,1.3,3.692,3.692,0,0,0-.716,2.243h0s-1.517,4.746,3.084,10.968c0,0,.4,2.071.757,2.3l.882-2.875a4.96,4.96,0,0,1-2.922-2.2s2.793,2.236,3.07,1.777c.057-.095.4-1.544.4-1.544s-3.716-1.013-4.844-3.56c0,0,2.972,3.114,4.979,3.01l.385-2.219s-3.965-.861-5.374-3.716c0,0,3.219,3.148,5.428,3.243l.084-2.236s-3.854-.932-5.023-3.331c0,0,4.087,3.263,4.992,2.8a10.058,10.058,0,0,0-.338-2.594s-2.75-.723-3.3-2.175c0,0,2.962,1.892,3.219,1.608a11.589,11.589,0,0,0-1.878-3.8,8.4,8.4,0,0,1,2.29,3.662,4.617,4.617,0,0,0,.584-2.584s1.094,1.236-.405,3.233a10.676,10.676,0,0,1,.382,2.429,10.118,10.118,0,0,0,2.216-3.341s.338,2-2.219,3.932l-.034,2.25s2.446-2.209,2.959-3.587c0,0,0,2.1-3.016,4.151l-.338,2.182a17.139,17.139,0,0,0,3.155-3.151s-.405,1.946-3.28,3.77l-.409,1.429s1.621-1.3,2.054-1.716.581-.338.581-.338a7.07,7.07,0,0,1-2.8,2.655A17.315,17.315,0,0,0,893.33,807.792Z" transform="translate(-612.24 -541.104)" fill="#464d77" opacity="0.1"/><path d="M575.85,55.746s1.929,16.295,12.886,12.363a2.8,2.8,0,0,0,2.645-1.956s-.844.122-.851-1.554a7.563,7.563,0,0,0-.233-1.767,3.689,3.689,0,0,0-1.267-1.983h0s-2.689-4.2-10.427-4.607c0,0-1.851-1.013-2.256-.885L578,57.868a4.946,4.946,0,0,1,3.557-.844s-3.506.723-3.327,1.23c.034.1.932,1.29.932,1.29s3.158-2.229,5.86-1.469c0,0-4.293.3-5.5,1.908l1.442,1.716s3.2-2.506,6.306-1.76c0,0-4.479.473-5.962,2.111l1.682,1.493s3.162-2.385,5.742-1.743c0,0-5.121,1.067-5.344,2.057a10.8,10.8,0,0,0,2.206,1.412s2.31-1.659,3.776-1.152c0,0-3.344,1.074-3.293,1.452a11.61,11.61,0,0,0,4.128.98,8.572,8.572,0,0,1-4.28-.574,4.632,4.632,0,0,0,1.618,2.1s-1.648.051-2.233-2.364a10.764,10.764,0,0,1-2.111-1.253,10.109,10.109,0,0,0,1.159,3.837s-1.75-1.013-1.615-4.219l-1.689-1.463s.139,3.293.868,4.57c0,0-1.621-1.327-1.27-4.972l-1.449-1.665a17.163,17.163,0,0,0,.409,4.438s-1.24-1.554-.807-4.932l-.841-1.226s-.03,2.077,0,2.679-.115.659-.115.659a7.093,7.093,0,0,1-.263-3.861A17.245,17.245,0,0,0,575.85,55.746Z" transform="translate(-405.124 -55.29)" fill="#464d77" opacity="0.1"/><path d="M785.923,733.707s-15.815-4.391-16.322,7.242a2.8,2.8,0,0,0,.807,3.189s.206-.824,1.76-.2a7.566,7.566,0,0,0,1.723.456,3.692,3.692,0,0,0,2.317-.426h0s4.9-.9,8.222-7.884c0,0,1.638-1.328,1.689-1.753l-2.949.578a4.958,4.958,0,0,1-.567,3.614s.676-3.52.125-3.547c-.112,0-1.55.375-1.55.375s.865,3.736-.861,5.948c0,0,1.351-4.087.314-5.81l-2.142.706s1.108,3.9-.763,6.5c0,0,1.263-4.32.3-6.313l-2.006.976s1.013,3.83-.564,5.979c0,0,.953-5.141.118-5.725a10.989,10.989,0,0,0-2.138,1.506s.676,2.766-.365,3.932c0,0,.27-3.5-.1-3.6A11.563,11.563,0,0,0,770.5,742.9a8.4,8.4,0,0,1,2.155-3.743,4.64,4.64,0,0,0-2.557.7s.574-1.544,3.04-1.162a10.585,10.585,0,0,1,1.962-1.479,10.038,10.038,0,0,0-3.993-.385s1.615-1.229,4.516.108l2-1.013s-3.1-1.118-4.557-.926c0,0,1.841-1.013,5.067.706l2.087-.713a17.188,17.188,0,0,0-4.263-1.3s1.909-.557,4.871,1.121l1.452-.314s-1.912-.818-2.483-1.013-.567-.338-.567-.338a7.092,7.092,0,0,1,3.658,1.216A17.491,17.491,0,0,0,785.923,733.707Z" transform="translate(-533.299 -503.975)" fill="#464d77" opacity="0.1"/></g></svg>